# xmcd CD database file
# Copyright (C) 1993-1996 Ti Kan
#
# Track frame offsets:
# 150
# 14898
# 33940
# 48498
# 64963
# 81990
# 98880
# 112538
# 130890
# 143673
#
# Disc length: 2077 seconds
#
# Revision: 0
# Processed by: cddbd v1.4b41PL1 Copyright (c) Steve Scherf et al.
# Submitted via: inCDius 1.1b5
#
DISCID=84081b0a
DTITLE=Skip Ewing - The Will to Love
DYEAR=1900
DGENRE=
TTITLE0=The Will To Love
TTITLE1=Please Don't Leave Me now
TTITLE2=If a Man Could Live On Love Alone
TTITLE3=Karen
TTITLE4=The Door
TTITLE5=It Wasn't His Child
TTITLE6=It's You Again
TTITLE7=Age Doesn't Matter At All
TTITLE8=Ain't That The Way It Always Ends
TTITLE9=She's Makin' Plans
EXTD=
EXTT0=
EXTT1=
EXTT2=
EXTT3=
EXTT4=
EXTT5=
EXTT6=
EXTT7=
EXTT8=
EXTT9=
PLAYORDER=
